<svg width="24" height="24" viewBox="0 0 24 24" fill="none" xmlns="http://www.w3.org/2000/svg">
<path d="M20.2474 3.034C20.1784 3.016 18.5054 2.601 16.1954 2.601C13.3534 2.601 9.3274 3.241 6.2854 6.288C0.945402 11.637 2.9454 19.898 3.0334 20.248C3.07765 20.4236 3.16874 20.5839 3.29696 20.7117C3.42517 20.8396 3.5857 20.9302 3.7614 20.974C3.8304 20.992 5.4874 21.4 7.7794 21.4C10.6284 21.4 14.6634 20.759 17.7114 17.712C23.0464 12.377 21.0624 4.112 20.9754 3.763C20.9311 3.5871 20.8401 3.42646 20.7119 3.29812C20.5838 3.16977 20.4232 3.07851 20.2474 3.034ZM16.7104 12.296L15.2964 13.71L13.5034 11.918L11.9174 13.504L13.7094 15.297L12.2954 16.711L10.5034 14.918L8.7104 16.711L7.2964 15.297L9.0894 13.504L7.2964 11.71L8.7104 10.296L10.5034 12.09L12.0894 10.504L10.2954 8.711L11.7094 7.297L13.5034 9.09L15.2964 7.297L16.7104 8.711L14.9174 10.504L16.7104 12.296Z" fill="black"/>
</svg>
