<svg width="24" height="24" viewBox="0 0 24 24" fill="none" xmlns="http://www.w3.org/2000/svg">
<path d="M14.4703 4.47003C14.539 4.39634 14.6218 4.33724 14.7138 4.29625C14.8058 4.25526 14.9051 4.23322 15.0058 4.23144C15.1065 4.22966 15.2065 4.24819 15.2999 4.28591C15.3933 4.32363 15.4781 4.37977 15.5494 4.45099C15.6206 4.52221 15.6767 4.60705 15.7144 4.70043C15.7522 4.79382 15.7707 4.89385 15.7689 4.99455C15.7671 5.09526 15.7451 5.19457 15.7041 5.28657C15.6631 5.37857 15.604 5.46137 15.5303 5.53003L9.06032 12L15.5303 18.47C15.604 18.5387 15.6631 18.6215 15.7041 18.7135C15.7451 18.8055 15.7671 18.9048 15.7689 19.0055C15.7707 19.1062 15.7522 19.2062 15.7144 19.2996C15.6767 19.393 15.6206 19.4779 15.5494 19.5491C15.4781 19.6203 15.3933 19.6764 15.2999 19.7142C15.2065 19.7519 15.1065 19.7704 15.0058 19.7686C14.9051 19.7668 14.8058 19.7448 14.7138 19.7038C14.6218 19.6628 14.539 19.6037 14.4703 19.53L7.47032 12.53C7.32987 12.3894 7.25098 12.1988 7.25098 12C7.25098 11.8013 7.32987 11.6107 7.47032 11.47L14.4703 4.47003Z" fill="black"/>
</svg>
