<svg width="20" height="20" viewBox="0 0 20 20" fill="none" xmlns="http://www.w3.org/2000/svg">
<path d="M17.5 9.99995V16.2499C17.5 16.5815 17.3683 16.8994 17.1339 17.1338C16.8995 17.3683 16.5815 17.4999 16.25 17.4999H3.75C3.41848 17.4999 3.10054 17.3683 2.86612 17.1338C2.6317 16.8994 2.5 16.5815 2.5 16.2499V3.74995C2.5 3.41843 2.6317 3.10048 2.86612 2.86606C3.10054 2.63164 3.41848 2.49995 3.75 2.49995H10C10.1658 2.49995 10.3247 2.5658 10.4419 2.68301C10.5592 2.80022 10.625 2.95919 10.625 3.12495C10.625 3.29071 10.5592 3.44968 10.4419 3.56689C10.3247 3.6841 10.1658 3.74995 10 3.74995H3.75V16.2499H16.25V9.99995C16.25 9.83419 16.3158 9.67522 16.4331 9.55801C16.5503 9.44079 16.7092 9.37495 16.875 9.37495C17.0408 9.37495 17.1997 9.44079 17.3169 9.55801C17.4342 9.67522 17.5 9.83419 17.5 9.99995ZM17.942 5.44195L10.442 12.9419C10.3245 13.0587 10.1657 13.1244 10 13.1249H7.5C7.33424 13.1249 7.17527 13.0591 7.05806 12.9419C6.94085 12.8247 6.875 12.6657 6.875 12.4999V9.99995C6.87551 9.83428 6.94126 9.67549 7.058 9.55795L14.558 2.05795C14.6753 1.94095 14.8343 1.87524 15 1.87524C15.1657 1.87524 15.3247 1.94095 15.442 2.05795L17.942 4.55795C18.059 4.67529 18.1247 4.83424 18.1247 4.99995C18.1247 5.16566 18.059 5.3246 17.942 5.44195ZM16.614 4.99995L15 3.38395L14.009 4.37495L15.625 5.99095L16.614 4.99995Z" fill="#333236"/>
</svg>
