<svg width="24" height="24" viewBox="0 0 24 24" fill="none" xmlns="http://www.w3.org/2000/svg">
<path fill-rule="evenodd" clip-rule="evenodd" d="M21 11.7168C21.0008 11.065 20.9418 10.4144 20.8237 9.77285H11.6915V13.4478H16.9087C16.8004 14.0285 16.5732 14.5816 16.2408 15.0739C15.9084 15.5661 15.4776 15.9873 14.9745 16.3118V18.6962H18.1069C19.9397 17.0422 20.9973 14.6059 20.9973 11.715L21 11.7168Z" fill="#3E82F1"/>
<path fill-rule="evenodd" clip-rule="evenodd" d="M11.6938 21C14.3111 21 16.5056 20.1497 18.1093 18.6989L14.9769 16.3146C14.1084 16.8847 12.9979 17.2221 11.6938 17.2221C9.16874 17.2221 7.03179 15.5502 6.27015 13.3047H3.03093V15.7668C3.83784 17.3405 5.07533 18.6633 6.60512 19.5875C8.13492 20.5116 9.89677 21.0007 11.6938 21Z" fill="#32A753"/>
<path fill-rule="evenodd" clip-rule="evenodd" d="M6.27015 13.3047C5.86468 12.1343 5.86473 10.8653 6.2702 9.69495V7.23276H3.03098C2.35303 8.55702 2 10.0181 2 11.4997C2 12.9813 2.35298 14.4426 3.03093 15.7668L6.27015 13.3047Z" fill="#F9BB00"/>
<path fill-rule="evenodd" clip-rule="evenodd" d="M11.6938 5.77786C13.1175 5.77786 14.3951 6.25759 15.3997 7.19915L18.1795 4.47383C16.501 2.94067 14.3065 2 11.6956 2C9.89856 1.99935 8.13672 2.4884 6.60693 3.41254C5.07713 4.33667 3.83965 5.65948 3.03273 7.23316L6.27196 9.69536C7.03359 7.44976 9.17054 5.77786 11.6956 5.77786H11.6938Z" fill="#E74133"/>
</svg>
