<svg width="20" height="20" viewBox="0 0 20 20" fill="none" xmlns="http://www.w3.org/2000/svg">
  <path fill-rule="evenodd" clip-rule="evenodd" d="M10 2C5.58 2 2 5.58 2 10C2 13.53 4.29 16.53 7.46 17.59C7.86 17.66 8 17.41 8 17.2V15.79C5.77 16.27 5.3 14.71 5.3 14.71C4.94 13.78 4.41 13.53 4.41 13.53C3.68 13.03 4.47 13.04 4.47 13.04C5.28 13.1 5.71 13.88 5.71 13.88C6.43 15.11 7.59 14.75 8.05 14.55C8.12 14.03 8.33 13.68 8.56 13.48C6.78 13.28 4.91 12.59 4.91 9.53C4.91 8.66 5.22 7.95 5.73 7.39C5.65 7.19 5.38 6.38 5.81 5.28C5.81 5.28 6.48 5.07 8 6.1C8.64 5.92 9.32 5.83 10 5.83C10.68 5.83 11.36 5.92 12 6.1C13.52 5.07 14.19 5.28 14.19 5.28C14.62 6.38 14.35 7.19 14.27 7.39C14.78 7.95 15.09 8.66 15.09 9.53C15.09 12.6 13.21 13.28 11.43 13.48C11.71 13.72 11.97 14.2 11.97 14.93V17.2C11.97 17.41 12.11 17.67 12.52 17.59C15.69 16.53 18 13.53 18 10C18 5.58 14.42 2 10 2Z" fill="currentColor"/>
</svg>
