<svg width="20" height="20" viewBox="0 0 20 20" fill="none" xmlns="http://www.w3.org/2000/svg">
<path d="M10.0015 3.54199C10.0107 3.54199 15.733 3.54244 17.1646 3.93018C17.9537 4.14038 18.5747 4.76467 18.7849 5.56022C19.1665 6.99941 19.1633 10.0003 19.1633 10.0003C19.1633 10.0213 19.1619 13.0064 18.7817 14.4404C18.5714 15.2327 17.9505 15.857 17.1614 16.0705C15.7317 16.4553 9.99829 16.4554 9.99829 16.4554C9.9895 16.4554 4.26377 16.455 2.83521 16.0705C2.04612 15.8603 1.42513 15.236 1.21493 14.4404C0.83466 13.0064 0.833257 10.0213 0.833252 10.0003C0.833252 10.0003 0.833387 6.99938 1.21818 5.55697C1.42839 4.76465 2.04937 4.14036 2.83846 3.92692C4.26807 3.54211 10.0015 3.54199 10.0015 3.54199ZM8.12573 12.7266L12.9182 10.0003L8.12573 7.27409V12.7266Z" fill="currentColor"/>
</svg>
