<svg width="24" height="24" viewBox="0 0 24 24" fill="none" xmlns="http://www.w3.org/2000/svg">
<path d="M13.5038 4.12654C13.5038 4.98709 12.8062 5.68471 11.9456 5.68471C11.0851 5.68471 10.3874 4.98709 10.3874 4.12654C10.3874 3.26598 11.0851 2.56836 11.9456 2.56836C12.8062 2.56836 13.5038 3.26598 13.5038 4.12654Z" fill="#707177"/>
<path d="M11.9472 4.12651C15.0694 4.12676 17.6133 6.59843 17.7303 9.69198C17.7304 9.69358 17.7317 9.69487 17.7333 9.69487C17.735 9.69487 17.7363 9.6962 17.7363 9.69785V13.074C17.7363 13.6934 18.4543 14.188 18.8017 14.7007L19.8135 16.1949C20.2627 16.8588 19.7869 17.7552 18.9853 17.7554H5.01463C4.21275 17.7554 3.73703 16.8589 4.18651 16.1949L5.19725 14.7007C5.52701 14.2139 6.15916 13.7477 6.15916 13.1597V9.69785C6.15916 9.6962 6.1605 9.69487 6.16215 9.69487C6.16375 9.69487 6.16507 9.69358 6.16513 9.69198C6.28224 6.59842 8.82509 4.12672 11.9472 4.12651Z" fill="#707177"/>
<path d="M14.3513 19.0197C14.3511 20.3518 13.2713 21.4318 11.9392 21.4318C10.6903 21.4317 9.66318 20.4822 9.53978 19.2658L9.52708 19.0197H14.3513Z" fill="#707177"/>
<rect x="15" y="4.54297" width="6" height="6" rx="3" fill="#FF2727"/>
<rect x="15" y="4.54297" width="6" height="6" rx="3" stroke="white"/>
</svg>
