<svg width="28" height="28" viewBox="0 0 28 28" fill="none" xmlns="http://www.w3.org/2000/svg">
<g clip-path="url(#clip0_51762_19688)">
<path d="M14.0004 26.5984C20.9592 26.5984 26.6004 20.9572 26.6004 13.9984C26.6004 7.03965 20.9592 1.39844 14.0004 1.39844C7.0416 1.39844 1.40039 7.03965 1.40039 13.9984C1.40039 20.9572 7.0416 26.5984 14.0004 26.5984Z" stroke="#121619" stroke-width="2"/>
<path d="M14.0008 25.2008V22.4008M25.2008 14.0008H22.4008M14.0008 5.60078V2.80078M5.60078 14.0008H2.80078" stroke="#121619" stroke-width="2" stroke-linecap="round"/>
<path d="M14.0004 16.0984C15.1602 16.0984 16.1004 15.1582 16.1004 13.9984C16.1004 12.8386 15.1602 11.8984 14.0004 11.8984C12.8406 11.8984 11.9004 12.8386 11.9004 13.9984C11.9004 15.1582 12.8406 16.0984 14.0004 16.0984Z" fill="#121619"/>
</g>
<defs>
<clipPath id="clip0_51762_19688">
<rect width="28" height="28" fill="white"/>
</clipPath>
</defs>
</svg>
