<svg width="20" height="20" viewBox="0 0 20 20" fill="none" xmlns="http://www.w3.org/2000/svg">
<path d="M9.99993 7.36092C8.5735 7.36092 7.36104 8.57338 7.36104 9.99981C7.36104 11.4262 8.5735 12.6387 9.99993 12.6387C11.4264 12.6387 12.6388 11.4262 12.6388 9.99981C12.6388 8.57338 11.4264 7.36092 9.99993 7.36092Z" fill="currentColor"/>
<path d="M13.3825 2.08301H6.68931C4.0984 2.08301 2.08325 4.09816 2.08325 6.6171V13.3103C2.08325 15.9012 4.0984 17.9163 6.68931 17.9163H13.3825C15.9014 17.9163 17.9166 15.9012 17.9166 13.3103V6.6171C17.9166 4.09816 15.9014 2.08301 13.3825 2.08301ZM9.99992 14.1739C7.69689 14.1739 5.89765 12.3027 5.89765 10.0716C5.89765 7.84058 7.69689 5.8974 9.99992 5.8974C12.3029 5.8974 14.1022 7.76861 14.1022 9.99967C14.1022 12.2307 12.3029 14.1739 9.99992 14.1739ZM14.2461 6.76104C13.7423 6.76104 13.3105 6.32922 13.3105 5.82543C13.3105 5.32164 13.7423 4.88983 14.2461 4.88983C14.7499 4.88983 15.1817 5.32164 15.1817 5.82543C15.1817 6.32922 14.7499 6.76104 14.2461 6.76104Z" fill="currentColor"/>
</svg>
