<svg width="37" height="37" viewBox="0 0 37 37" fill="none" xmlns="http://www.w3.org/2000/svg">
<path d="M0.5 18.0183C0.5 20.3188 0.953125 22.5969 1.83351 24.7223C2.71388 26.8478 4.00428 28.779 5.63101 30.4057C7.25774 32.0325 9.18895 33.3228 11.3144 34.2032C13.4398 35.0836 15.7178 35.5367 18.0183 35.5367C20.3188 35.5367 22.5969 35.0836 24.7223 34.2032C26.8478 33.3228 28.779 32.0325 30.4057 30.4057C32.0325 28.779 33.3228 26.8478 34.2032 24.7223C35.0836 22.5969 35.5367 20.3188 35.5367 18.0183C35.5367 13.3723 33.691 8.91634 30.4057 5.63101C27.1203 2.34567 22.6646 0.5 18.0183 0.5C13.3723 0.5 8.91634 2.34567 5.63101 5.63101C2.34567 8.91634 0.5 13.3723 0.5 18.0183Z" stroke="#E0E0E5" stroke-linecap="round" stroke-linejoin="round"/>
</svg>
