<svg width="37" height="37" viewBox="0 0 37 37" fill="none" xmlns="http://www.w3.org/2000/svg">
<path d="M35.5366 18.0188C35.5366 15.7183 35.0835 13.4402 34.2031 11.3148C33.3227 9.18929 32.0323 7.25812 30.4056 5.63144C28.7789 4.00461 26.8477 2.71429 24.7222 1.8339C22.5968 0.953519 20.3188 0.500427 18.0183 0.500427C15.7178 0.500427 13.4398 0.953519 11.3143 1.8339C9.1888 2.71429 7.25763 4.00461 5.63095 5.63144C4.00412 7.25812 2.7138 9.18929 1.83342 11.3148C0.95303 13.4402 0.499939 15.7183 0.499939 18.0188C0.499939 22.6649 2.34559 27.1208 5.63095 30.4061C8.91631 33.6914 13.3721 35.5371 18.0183 35.5371C22.6644 35.5371 27.1203 33.6914 30.4056 30.4061C33.6909 27.1208 35.5366 22.6649 35.5366 18.0188Z" stroke="#E0E0E5" stroke-linecap="round" stroke-linejoin="round"/>
</svg>
