<svg width="88" height="88" viewBox="0 0 88 88" fill="none" xmlns="http://www.w3.org/2000/svg">
<mask id="mask0_51762_13173" style="mask-type:alpha" maskUnits="userSpaceOnUse" x="5" y="13" width="62" height="62">
<path d="M66.2141 44.0009C66.2141 60.6876 52.6869 74.2149 36.0001 74.2149C19.3134 74.2149 5.78613 60.6876 5.78613 44.0009C5.78613 27.3141 19.3134 13.7869 36.0001 13.7869C52.6869 13.7869 66.2141 27.3141 66.2141 44.0009Z" fill="#70ACDE"/>
</mask>
<g mask="url(#mask0_51762_13173)">
<circle cx="35.926" cy="44.1704" r="34.5324" fill="#FF8F8F"/>
<ellipse cx="30.8829" cy="39.4539" rx="2.03618" ry="5.66299" fill="white"/>
<path d="M32.8474 39.8624C32.8474 38.1079 32.4547 36.6229 31.9248 35.6516C31.6613 35.1686 31.3994 34.8773 31.2012 34.7236C31.0165 34.5804 30.9273 34.5832 30.9185 34.5832C30.9097 34.5832 30.8205 34.5804 30.6357 34.7236C30.4375 34.8773 30.1757 35.1686 29.9121 35.6516C29.3823 36.6229 28.9896 38.1079 28.9896 39.8624C28.9896 41.6169 29.3823 43.1019 29.9121 44.0731C30.1757 44.5562 30.4375 44.8475 30.6357 45.0011C30.8205 45.1444 30.9097 45.1415 30.9185 45.1415V47.2346L30.7114 47.2251C28.6549 47.0339 27.0062 44.0114 26.9019 40.2419L26.8965 39.8624C26.8965 35.7908 28.6972 32.4901 30.9185 32.4901C33.1398 32.4901 34.9405 35.7908 34.9405 39.8624L34.935 40.2419C34.8273 44.1372 33.0703 47.2346 30.9185 47.2346V45.1415C30.9273 45.1415 31.0164 45.1444 31.2012 45.0011C31.3995 44.8475 31.6613 44.5562 31.9248 44.0731C32.4547 43.1019 32.8474 41.6169 32.8474 39.8624Z" fill="#1F1F22"/>
<path d="M27.0642 31.1189C27.0642 32.0662 26.2963 32.8341 25.349 32.8341C24.4017 32.8341 23.6338 32.0662 23.6338 31.1189C23.6338 30.1716 24.4017 29.4037 25.349 29.4037C26.2963 29.4037 27.0642 30.1716 27.0642 31.1189Z" fill="#1F1F22"/>
<path d="M38.5349 31.1189C38.5349 32.0662 37.767 32.8341 36.8197 32.8341C35.8724 32.8341 35.1045 32.0662 35.1045 31.1189C35.1045 30.1716 35.8724 29.4037 36.8197 29.4037C37.767 29.4037 38.5349 30.1716 38.5349 31.1189Z" fill="#1F1F22"/>
</g>
<path d="M80.0237 21.5984L75.0183 21.0683C74.4774 21.0111 73.9765 21.1235 73.5914 21.3481C72.6436 21.9009 72.8221 23.2612 72.7715 24.3572L72.0162 40.7145C71.9656 41.8106 71.8988 43.0541 72.7346 43.765C73.7226 44.6053 75.4018 44.8165 76.5868 44.2536C77.6066 43.7691 77.8725 42.5174 78.1103 41.4138L81.4642 25.845C81.7436 24.5478 82.4902 22.9196 81.4454 22.1016C81.1273 21.8526 80.6645 21.6662 80.0237 21.5984Z" fill="#1F1F22"/>
<path d="M77.148 51.6718C77.0361 53.3864 75.5555 54.6856 73.841 54.5738C72.1265 54.4619 70.8272 52.9813 70.9391 51.2668C71.0509 49.5523 72.5315 48.253 74.2461 48.3649C75.9606 48.4767 77.2598 49.9573 77.148 51.6718Z" fill="#1F1F22"/>
</svg>
